<svg xmlns="http://www.w3.org/2000/svg" viewBox="0 0 575.07 402.99"><defs><style>.cls-1,.cls-6,.cls-7{fill:none;}.cls-2{fill:#c9e7f0;}.cls-3{fill:#c3dfe8;}.cls-4{fill:#d9f1f8;}.cls-5{fill:#4386af;}.cls-6{stroke:#0d5a94;}.cls-6,.cls-7{stroke-miterlimit:10;stroke-width:4px;}.cls-7{stroke:#ddd;}</style></defs><g id="Layer_2" data-name="Layer 2"><g id="Layer_1-2" data-name="Layer 1"><rect class="cls-1" width="575.07" height="402.99"/><path class="cls-2" d="M221.44,57.09v211a7.82,7.82,0,0,0,7.82,7.82H345.31a7.82,7.82,0,0,0,7.82-7.82v-211C354.52,40.86,222.81,41.07,221.44,57.09Z"/><path class="cls-3" d="M353.13,268.13v-5.08a505.29,505.29,0,0,1-65.37,4.3,504.8,504.8,0,0,1-66.32-4.3v5.08a7.82,7.82,0,0,0,7.82,7.82,294.94,294.94,0,0,0,59.22,5.78A294.53,294.53,0,0,0,345.31,276C345.83,276,348.6,275.9,353.13,268.13Z"/><polygon class="cls-4" points="241.66 275.95 231.69 275.95 231.69 62.97 241.66 65.62 241.66 275.95"/><polygon class="cls-4" points="255.3 279.87 247.28 278.92 247.28 65.91 255.3 67.66 255.3 279.87"/><path class="cls-5" d="M347.63,299A262.47,262.47,0,0,1,227,299v-9.1a263.49,263.49,0,0,0,120.68,0Z"/><path class="cls-6" d="M347.63,276v19.44a4.46,4.46,0,0,1-3.5,4.36,262.5,262.5,0,0,1-57,6.23,262,262,0,0,1-56.7-6.23,4.46,4.46,0,0,1-3.49-4.36V276"/><path class="cls-6" d="M353.13,57.09v211c0,4.32-3.29,6.37-7.82,7.82-15.63,5-36.32,5.9-59.67,5.77-21.9-.13-40.68-3.07-56.23-5.3a10,10,0,0,1-5.68-2.76,7.81,7.81,0,0,1-2.29-5.53v-211"/><polyline class="cls-7" points="392.82 57.09 404.79 57.09 404.79 275.95 392.82 275.95"/><line class="cls-7" x1="404.79" y1="166.52" x2="424.74" y2="166.52"/><polyline class="cls-7" points="353.13 340.52 353.13 352.49 221.44 352.49 221.44 340.52"/><line class="cls-7" x1="287.29" y1="352.49" x2="287.29" y2="372.44"/><ellipse class="cls-6" cx="287.29" cy="57.09" rx="65.84" ry="12.09"/></g></g></svg>