<svg xmlns="http://www.w3.org/2000/svg" viewBox="0 0 575.07 402.99"><defs><style>.cls-1{fill:none;}.cls-2{fill:#c9e7f0;}.cls-3{fill:#fff;}.cls-4{fill:#ddd;}.cls-5{fill:#0d5a94;}</style></defs><g id="Layer_2" data-name="Layer 2"><g id="Layer_1-2" data-name="Layer 1"><rect class="cls-1" width="575.07" height="402.99"/><polygon class="cls-2" points="101.75 260.15 101.75 157.19 223.48 69.77 423.19 70.56 424.23 171.15 317.11 260.15 101.75 260.15"/><path class="cls-3" d="M102.5,260.15V196.86l63.74,21.46c9.75,2.08,19.74,3,36.58,2.78,0,0,25.43,4.47,38.19,7.07l1.65.33a65.94,65.94,0,0,1,20.83,8.35,43.19,43.19,0,0,0,43.25.77l10.37-5.76,107.87-89v28.3l-107.87,89Z"/><polyline class="cls-1" points="102.5 231.86 102.5 157.81 224.23 70.39 423.94 71.18 424.98 142.85"/><polygon class="cls-4" points="185.41 65.45 122.41 109.95 101.06 109.95 101.06 113.12 117.94 113.12 54.94 157.62 78.14 157.62 78.14 154.46 64.9 154.46 186.41 68.61 204.12 68.61 204.12 65.45 185.41 65.45"/><polygon class="cls-4" points="319.59 287.07 316.42 287.07 316.42 294.95 102.14 294.95 102.14 287.07 98.98 287.07 98.98 298.12 207.7 298.12 207.7 312.31 210.86 312.31 210.86 298.12 319.59 298.12 319.59 287.07"/><path class="cls-5" d="M425.53,71.62a2,2,0,0,0-1.85-2.81h-200L101,156.2l0,0h0V261.73h.16l.11,16.7,217.37.33L426.42,191.3V172l.15-.13Zm-2.43,70.74L318.69,228.5V158.56l103.7-84.09ZM315.53,230.93,306,236.24a41.68,41.68,0,0,1-41.66-.75A67.57,67.57,0,0,0,243,227l-1.64-.33c-2.36-.48-5.31-1.19-8.79-2.12a147.81,147.81,0,0,0-46.4-5.08,51.07,51.07,0,0,1-19.39-2.6l-62.66-21.09V159.39H315.53ZM104.09,199.06l61.65,20.76a54.29,54.29,0,0,0,20.59,2.76,144.23,144.23,0,0,1,45.4,5c3.53.94,6.55,1.67,9,2.16l1.64.33a64.37,64.37,0,0,1,20.33,8.15,44.86,44.86,0,0,0,44.83.8l8-4.45v24H104.09Zm214.6,57.73V232.6l104.45-86.18.25,23.87ZM224.74,72H420.45l-103.9,84.25H106.36Z"/><polygon class="cls-5" points="197.94 336.48 195.62 327.58 194.27 327.58 191.95 336.45 189.59 327.58 188.31 327.58 191.21 337.39 192.68 337.39 194.41 331.03 194.91 328.82 194.93 328.82 195.43 331.03 197.17 337.39 198.64 337.39 201.52 327.58 200.32 327.58 197.94 336.48"/><rect class="cls-5" x="203.44" y="329.96" width="1.19" height="7.43"/><path class="cls-5" d="M204,326.75a.87.87,0,0,0-.65.25,1,1,0,0,0,0,1.29,1,1,0,0,0,1.3,0,1,1,0,0,0,0-1.29A.87.87,0,0,0,204,326.75Z"/><path class="cls-5" d="M212.8,331.12a2.64,2.64,0,0,0-1-.95,3,3,0,0,0-1.46-.36,3.13,3.13,0,0,0-2.47,1,4.81,4.81,0,0,0,0,5.66,3.15,3.15,0,0,0,2.47,1,3,3,0,0,0,1.54-.4,2.5,2.5,0,0,0,1-1l.07,1.29h1V326.55H212.8Zm0,2.65a3,3,0,0,1-.64,2,2.3,2.3,0,0,1-3.41,0,3.72,3.72,0,0,1,0-4.11,2.29,2.29,0,0,1,3.41,0,3,3,0,0,1,.64,2Z"/><path class="cls-5" d="M219.61,336.42a1.2,1.2,0,0,1-.81-.27,1,1,0,0,1-.3-.81V331h2.75v-1H218.5v-2.11l-1.19.33V330h-1.48v1h1.48v4.56a1.92,1.92,0,0,0,.59,1.5,2.22,2.22,0,0,0,1.48.49,2.72,2.72,0,0,0,1.91-.67l-.41-1A1.74,1.74,0,0,1,219.61,336.42Z"/><path class="cls-5" d="M226.58,329.81a3.15,3.15,0,0,0-1.42.32,2.29,2.29,0,0,0-1,.95v-4.53H223v10.84h1.19v-3.94a3,3,0,0,1,.33-1.47,2.09,2.09,0,0,1,.86-.86,2.45,2.45,0,0,1,1.11-.27,1.77,1.77,0,0,1,1.33.52,2.39,2.39,0,0,1,.5,1.68v4.34h1.19v-4.75a2.65,2.65,0,0,0-.82-2.1A3,3,0,0,0,226.58,329.81Z"/><polygon class="cls-5" points="42.16 105.88 40.97 105.88 40.97 115.68 47.78 115.68 47.78 114.57 42.16 114.57 42.16 105.88"/><path class="cls-5" d="M54.25,108.56a3.43,3.43,0,0,0-1.79-.46,3.32,3.32,0,0,0-2.6,1A4.11,4.11,0,0,0,49,112a4,4,0,0,0,1,2.83,3.41,3.41,0,0,0,2.63,1,3.86,3.86,0,0,0,1.91-.42,3,3,0,0,0,1.18-1.2l-1-.52a1.45,1.45,0,0,1-.74.82,3,3,0,0,1-1.36.28,2.29,2.29,0,0,1-1.67-.63,2.68,2.68,0,0,1-.75-1.75h5.6a5.79,5.79,0,0,0,.06-.83,4.1,4.1,0,0,0-.38-1.77A3,3,0,0,0,54.25,108.56Zm-4.11,2.8a2.66,2.66,0,0,1,.73-1.64,2.22,2.22,0,0,1,1.59-.58,2,2,0,0,1,1.5.59,2.75,2.75,0,0,1,.68,1.63Z"/><path class="cls-5" d="M61.65,108.1a3.37,3.37,0,0,0-1.47.32,2.32,2.32,0,0,0-1,1l-.08-1.16H58v7.43h1.19v-4a3,3,0,0,1,.33-1.48,2.13,2.13,0,0,1,.86-.85,2.48,2.48,0,0,1,1.11-.26,1.77,1.77,0,0,1,1.33.52,2.39,2.39,0,0,1,.5,1.68v4.34h1.19v-4.75a2.66,2.66,0,0,0-.82-2.1A3,3,0,0,0,61.65,108.1Z"/><path class="cls-5" d="M73.79,107.93l-.27-1a1.93,1.93,0,0,0-2.09,1.51,4,4,0,0,0-3.09,0,2.62,2.62,0,0,0-1.09.89,2.29,2.29,0,0,0-.39,1.3,2.61,2.61,0,0,0,.28,1.19,2.13,2.13,0,0,0,.81.85,1.79,1.79,0,0,0-.82.54,1.39,1.39,0,0,0-.3.92,1.28,1.28,0,0,0,.28.8,2.09,2.09,0,0,0,.73.56,1.9,1.9,0,0,0-1,.55,1.27,1.27,0,0,0-.35.89,1.61,1.61,0,0,0,.86,1.42,4.86,4.86,0,0,0,2.55.54,5.44,5.44,0,0,0,1.85-.29,3.06,3.06,0,0,0,1.33-.83,1.79,1.79,0,0,0,.49-1.25,1.56,1.56,0,0,0-.59-1.3,2.63,2.63,0,0,0-1.65-.47H68.91a1.13,1.13,0,0,1-.71-.21.71.71,0,0,1-.27-.59.9.9,0,0,1,.2-.61,1.17,1.17,0,0,1,.64-.33,4.26,4.26,0,0,0,1.14.13,3.76,3.76,0,0,0,1.57-.31,2.56,2.56,0,0,0,1.09-.9,2.24,2.24,0,0,0,.39-1.3,2.32,2.32,0,0,0-.25-1,2.35,2.35,0,0,0-.69-.82Q72.34,107.93,73.79,107.93ZM68,116a1.94,1.94,0,0,1,1-.25h2a2.11,2.11,0,0,1,1.14.23.73.73,0,0,1,.33.65,1,1,0,0,1-.65.88,3.6,3.6,0,0,1-1.78.37,4.2,4.2,0,0,1-1.83-.32,1,1,0,0,1-.62-.88A.76.76,0,0,1,68,116Zm3.19-4.27a2.15,2.15,0,0,1-2.58,0,1.46,1.46,0,0,1,0-2.23,2.15,2.15,0,0,1,2.58,0,1.46,1.46,0,0,1,0,2.23Z"/><path class="cls-5" d="M78.26,114.71a1.17,1.17,0,0,1-.81-.27,1,1,0,0,1-.31-.81v-4.35h2.75v-1H77.14v-2.11l-1.18.33v1.78H74.47v1H76v4.56a1.92,1.92,0,0,0,.58,1.5,2.19,2.19,0,0,0,1.48.49,2.76,2.76,0,0,0,1.92-.67l-.42-1A1.73,1.73,0,0,1,78.26,114.71Z"/><path class="cls-5" d="M85.23,108.1a3.12,3.12,0,0,0-1.42.32,2.31,2.31,0,0,0-1,1v-4.53H81.62v10.84H82.8v-3.94a3,3,0,0,1,.34-1.47,2,2,0,0,1,.86-.86,2.39,2.39,0,0,1,1.11-.27,1.8,1.8,0,0,1,1.33.52,2.39,2.39,0,0,1,.49,1.68v4.34h1.19v-4.75a2.66,2.66,0,0,0-.82-2.1A3,3,0,0,0,85.23,108.1Z"/><polygon class="cls-5" points="475.61 98.85 474.85 101.29 474.82 101.29 474.08 98.84 471.92 92.88 470.1 92.88 470.1 102.69 471.22 102.69 471.22 96.52 471.09 93.94 471.11 93.94 474.33 102.69 475.34 102.69 478.56 93.94 478.58 93.94 478.44 96.52 478.44 102.69 479.57 102.69 479.57 92.88 477.75 92.88 475.61 98.85"/><path class="cls-5" d="M488.13,101.69a.54.54,0,0,1-.13-.4V97.63a2.24,2.24,0,0,0-.81-1.88,3.27,3.27,0,0,0-2.12-.64,3.59,3.59,0,0,0-1.9.49,2.52,2.52,0,0,0-1.1,1.32l.87.64a2.32,2.32,0,0,1,.84-1.06,2.35,2.35,0,0,1,1.29-.35,1.81,1.81,0,0,1,1.28.44,1.62,1.62,0,0,1,.46,1.19v.42l-2,.33a4.41,4.41,0,0,0-2.15.85,1.84,1.84,0,0,0-.75,1.46,1.7,1.7,0,0,0,.72,1.48,3,3,0,0,0,1.81.51,3.33,3.33,0,0,0,1.39-.29,2.2,2.2,0,0,0,1-.81,1.25,1.25,0,0,0,.42.85,1.5,1.5,0,0,0,.92.25,2.64,2.64,0,0,0,.89-.15l.07-.93a2.32,2.32,0,0,1-.59.07A.58.58,0,0,1,488.13,101.69Zm-1.32-1.5a1.36,1.36,0,0,1-.68,1.16,2.84,2.84,0,0,1-1.61.44,1.78,1.78,0,0,1-1-.24.83.83,0,0,1-.35-.71,1,1,0,0,1,.49-.85,3.77,3.77,0,0,1,1.48-.51l1.67-.32Z"/><polygon class="cls-5" points="496.88 95.26 495.48 95.26 493.55 98 491.59 95.26 490.1 95.26 492.78 98.94 489.93 102.69 491.31 102.69 493.42 99.82 495.47 102.69 496.92 102.69 494.19 98.9 496.88 95.26"/><path class="cls-5" d="M499.39,92.05a.89.89,0,1,0,0,1.78.89.89,0,1,0,0-1.78Z"/><rect class="cls-5" x="498.79" y="95.26" width="1.19" height="7.43"/><path class="cls-5" d="M512.77,95.41a3.34,3.34,0,0,0-2.91.07,2.29,2.29,0,0,0-1.07,1.08,2.44,2.44,0,0,0-1.05-1.08,3.09,3.09,0,0,0-1.5-.37,2.88,2.88,0,0,0-1.36.33,2.46,2.46,0,0,0-1,1l-.07-1.16h-1v7.42h1.18v-4a2.84,2.84,0,0,1,.33-1.44,2.09,2.09,0,0,1,1.87-1.13,1.71,1.71,0,0,1,1.27.47,1.92,1.92,0,0,1,.49,1.43v4.63h1.18V98.61a2.81,2.81,0,0,1,.31-1.33,2.09,2.09,0,0,1,.8-.84,2.07,2.07,0,0,1,1.09-.29,1.71,1.71,0,0,1,1.27.47,1.92,1.92,0,0,1,.49,1.43v4.63h1.18V97.93a2.86,2.86,0,0,0-.4-1.57A2.44,2.44,0,0,0,512.77,95.41Z"/><path class="cls-5" d="M522.15,99.3a2.43,2.43,0,0,1-.68,1.87,2.39,2.39,0,0,1-1.7.62,1.76,1.76,0,0,1-1.31-.45A2.18,2.18,0,0,1,518,99.8V95.26h-1.19v4.85a2.56,2.56,0,0,0,.76,2,2.87,2.87,0,0,0,2,.67,2.81,2.81,0,0,0,2.66-1.27l.07,1.12h1V95.26h-1.18Z"/><path class="cls-5" d="M536.12,95.41a3.28,3.28,0,0,0-1.39-.3,3.34,3.34,0,0,0-1.52.37,2.29,2.29,0,0,0-1.07,1.08,2.41,2.41,0,0,0-1-1.08,3.13,3.13,0,0,0-1.51-.37,2.88,2.88,0,0,0-1.36.33,2.46,2.46,0,0,0-1,1l-.07-1.16h-1v7.42h1.19v-4a2.84,2.84,0,0,1,.32-1.44,2.09,2.09,0,0,1,1.87-1.13,1.71,1.71,0,0,1,1.27.47,1.88,1.88,0,0,1,.49,1.43v4.63h1.19V98.61a2.81,2.81,0,0,1,.3-1.33,2.09,2.09,0,0,1,.8-.84,2.07,2.07,0,0,1,1.09-.29,1.71,1.71,0,0,1,1.27.47,1.88,1.88,0,0,1,.49,1.43v4.63h1.19V97.93a2.86,2.86,0,0,0-.41-1.57A2.44,2.44,0,0,0,536.12,95.41Z"/><path class="cls-5" d="M473.26,107h-3.17v9.81h3.17a5,5,0,0,0,3.62-1.28,5.67,5.67,0,0,0,0-7.25A5,5,0,0,0,473.26,107ZM476,114.7a3.41,3.41,0,0,1-2.62,1h-2.1v-7.57h2.1a3.41,3.41,0,0,1,2.62,1,4.6,4.6,0,0,1,0,5.57Z"/><path class="cls-5" d="M485.42,109.7a3.43,3.43,0,0,0-1.79-.46,3.29,3.29,0,0,0-2.6,1,4.15,4.15,0,0,0-.91,2.83,4,4,0,0,0,1,2.84,3.42,3.42,0,0,0,2.64,1,3.84,3.84,0,0,0,1.9-.42,3.19,3.19,0,0,0,1.19-1.2l-1-.52a1.45,1.45,0,0,1-.73.81,2.94,2.94,0,0,1-1.36.29,2.32,2.32,0,0,1-1.68-.63,2.68,2.68,0,0,1-.75-1.75h5.61a7.7,7.7,0,0,0,.05-.83,4,4,0,0,0-.38-1.77A3,3,0,0,0,485.42,109.7Zm-4.11,2.8a2.66,2.66,0,0,1,.73-1.64,2.24,2.24,0,0,1,1.59-.58,2,2,0,0,1,1.5.59,2.75,2.75,0,0,1,.68,1.63Z"/><path class="cls-5" d="M492.87,109.24a2.92,2.92,0,0,0-1.54.4,2.44,2.44,0,0,0-1,1l-.08-1.29h-1v10.55h1.19v-4.28a2.61,2.61,0,0,0,1,1,3,3,0,0,0,1.47.36,3.13,3.13,0,0,0,2.47-1,4.84,4.84,0,0,0,0-5.65A3.13,3.13,0,0,0,492.87,109.24Zm1.57,5.92a2.08,2.08,0,0,1-1.71.77,2.11,2.11,0,0,1-1.7-.75,3,3,0,0,1-.63-2V113a3,3,0,0,1,.63-2,2.13,2.13,0,0,1,1.7-.74,2.08,2.08,0,0,1,1.71.77,3.67,3.67,0,0,1,0,4.11Z"/><path class="cls-5" d="M501.3,115.85a1.16,1.16,0,0,1-.8-.27,1,1,0,0,1-.31-.81v-4.35h2.75v-1h-2.75v-2.11l-1.19.33v1.78h-1.48v1H499V115a1.92,1.92,0,0,0,.59,1.5,2.22,2.22,0,0,0,1.48.49,2.76,2.76,0,0,0,1.91-.67l-.41-1A1.74,1.74,0,0,1,501.3,115.85Z"/><path class="cls-5" d="M510.35,110a3,3,0,0,0-2.08-.73,3.29,3.29,0,0,0-1.42.31,2.37,2.37,0,0,0-1,1V106h-1.19v10.85h1.19v-3.94a3,3,0,0,1,.33-1.48,2.09,2.09,0,0,1,.87-.85,2.38,2.38,0,0,1,1.1-.27,1.77,1.77,0,0,1,1.33.52,2.39,2.39,0,0,1,.5,1.68v4.34h1.19v-4.75A2.65,2.65,0,0,0,510.35,110Z"/><polygon class="cls-4" points="457.08 104.2 442.89 104.2 442.89 67.03 431.24 67.03 431.24 70.2 439.73 70.2 439.73 141.37 431.24 141.37 431.24 144.54 442.89 144.54 442.89 107.37 457.08 107.37 457.08 104.2"/></g></g></svg>