<svg xmlns="http://www.w3.org/2000/svg" viewBox="0 0 575.07 402.99"><defs><style>.cls-1,.cls-6,.cls-7,.cls-9{fill:none;}.cls-2{fill:#c9e7f0;}.cls-3{fill:#c3e0e9;}.cls-4{fill:#0d5a94;}.cls-5{fill:#d9f1f8;}.cls-6{stroke:#fff;stroke-linecap:round;stroke-linejoin:round;stroke-width:5px;}.cls-7{stroke:#0d5a94;}.cls-7,.cls-9{stroke-miterlimit:10;stroke-width:4px;}.cls-8{fill:#4386af;}.cls-9{stroke:#ddd;}</style></defs><g id="Layer_2" data-name="Layer 2"><g id="Layer_1-2" data-name="Layer 1"><rect class="cls-1" width="575.07" height="402.99"/><path class="cls-2" d="M347.92,69.57H227.15A109.68,109.68,0,0,0,265.8,268.62h43.47a109.68,109.68,0,0,0,38.65-199Z"/><path class="cls-3" d="M312.66,241.75A133.54,133.54,0,0,1,181.48,133.13a109.67,109.67,0,0,0,194.66,92.59A133,133,0,0,1,312.66,241.75Z"/><rect class="cls-4" x="208.42" y="50.61" width="158.22" height="23.36" rx="11.68"/><ellipse class="cls-5" cx="248.41" cy="161.11" rx="50.63" ry="68.12"/><path class="cls-6" d="M210.87,175.93a61.18,61.18,0,0,0,5.37,15.13"/><path class="cls-6" d="M231.26,113.79c-13,8.55-22,26.53-22,47.32"/><path class="cls-7" d="M226.53,70.32a110,110,0,0,0,31.52,197.55"/><path class="cls-7" d="M317,267.87A110,110,0,0,0,349,70.65"/><path class="cls-8" d="M337,283.64H238a11.51,11.51,0,0,1-10.91-7.89,11.68,11.68,0,0,0-.59,3.62,11.5,11.5,0,0,0,11.5,11.5h99a11.5,11.5,0,0,0,11.5-11.5,11.68,11.68,0,0,0-.58-3.62A11.51,11.51,0,0,1,337,283.64Z"/><rect class="cls-7" x="226.53" y="267.87" width="122" height="23" rx="11.5"/><polyline class="cls-9" points="397.54 320.46 397.54 332.43 177.53 332.43 177.53 320.46"/><line class="cls-9" x1="287.53" y1="332.43" x2="287.53" y2="352.38"/></g></g></svg>